<svg xmlns="http://www.w3.org/2000/svg" xmlns:xlink="http://www.w3.org/1999/xlink" width="611.775" height="459.226" viewBox="0 0 611.775 459.226">
  <defs>
    <linearGradient id="linear-gradient" x1="-7.757" y1="0.734" x2="-7.749" y2="0.734" gradientUnits="objectBoundingBox">
      <stop offset="0" stop-color="#ffda30"/>
      <stop offset="1" stop-color="#150e42"/>
    </linearGradient>
    <filter id="Path_14217" x="0" y="45.187" width="314.382" height="243.963" filterUnits="userSpaceOnUse">
      <feOffset input="SourceAlpha"/>
      <feGaussianBlur stdDeviation="17.5" result="blur"/>
      <feFlood flood-opacity="0.161"/>
      <feComposite operator="in" in2="blur"/>
      <feComposite in="SourceGraphic"/>
    </filter>
    <filter id="Ellipse_64" x="357.234" y="46.5" width="254.541" height="254.541" filterUnits="userSpaceOnUse">
      <feOffset dy="3" input="SourceAlpha"/>
      <feGaussianBlur stdDeviation="17.5" result="blur-2"/>
      <feFlood flood-opacity="0.161"/>
      <feComposite operator="in" in2="blur-2"/>
      <feComposite in="SourceGraphic"/>
    </filter>
    <filter id="Rectangle_4356" x="78.171" y="76.34" width="235.859" height="182.214" filterUnits="userSpaceOnUse">
      <feOffset input="SourceAlpha"/>
      <feGaussianBlur stdDeviation="17.5" result="blur-3"/>
      <feFlood flood-opacity="0.161"/>
      <feComposite operator="in" in2="blur-3"/>
      <feComposite in="SourceGraphic"/>
    </filter>
    <clipPath id="clip-path">
      <rect id="Rectangle_4759" data-name="Rectangle 4759" width="41.778" height="41.778" fill="none"/>
    </clipPath>
    <clipPath id="clip-path-2">
      <path id="Path_14219" data-name="Path 14219" d="M533.116,59.828c-19.836,2.053-42.3,1.878-42.3,1.878-.259.491-8.1,6.016-8.1,6.016s-5.451,30.012,4.545,44.789,44.057-11.533,44.057-11.533,19.159-3,28.783-40.666c.839-3.283-.634-4.371-3.625-4.371-4.884,0-13.817,2.9-23.356,3.887" transform="translate(-481.229 -55.941)" fill="none"/>
    </clipPath>
    <linearGradient id="linear-gradient-2" x1="-0.905" y1="3.091" x2="-0.903" y2="3.091" gradientUnits="objectBoundingBox">
      <stop offset="0" stop-color="#2b3582"/>
      <stop offset="1" stop-color="#150e42"/>
    </linearGradient>
    <clipPath id="clip-path-3">
      <path id="Path_14220" data-name="Path 14220" d="M327.4,452.928c-4.526.1-10.371-.845-15.584-1.795-5.832-1.062-10.873-2.124-12.39-1.712a70.382,70.382,0,0,0-21.389,9.951c-18.407,12.656-29.447,48.084-27.916,51.618s22.395,13.25,22.395,13.25l-2.354,95.132,65.7,32.986,57.563-29.452,2.4-97.347a69.807,69.807,0,0,0,23.327-15.315C413.7,490.217,404.75,470,389.5,459.155c-5.094-3.622-13.915-7.13-24.692-9.816a25.592,25.592,0,0,0-6.206-.7c-9.548,0-20.456,4.041-31.206,4.288" transform="translate(-249.98 -448.64)" fill="none"/>
    </clipPath>
    <linearGradient id="linear-gradient-3" x1="-0.294" y1="1.104" x2="-0.292" y2="1.104" gradientUnits="objectBoundingBox">
      <stop offset="0" stop-color="#fdf53f"/>
      <stop offset="1" stop-color="#d93c65"/>
    </linearGradient>
    <clipPath id="clip-path-4">
      <path id="Path_14221" data-name="Path 14221" d="M269.887,830.887c13.238-1.759,8.147-23.743,8.147-23.743s-27.7-6.13-19.382-70.79c-7.66-6.3-24.561-14.836-24.561-14.836s-27.958,77.512,35.8,109.368" transform="translate(-227.987 -721.519)" fill="none"/>
    </clipPath>
    <linearGradient id="linear-gradient-4" x1="-0.105" y1="1.355" x2="-0.103" y2="1.355" gradientUnits="objectBoundingBox">
      <stop offset="0" stop-color="#f9b776"/>
      <stop offset="1" stop-color="#f47960"/>
    </linearGradient>
    <clipPath id="clip-path-5">
      <path id="Path_14222" data-name="Path 14222" d="M812,736.355c2.944,59.794-19.382,70.79-19.382,70.79s-5.091,21.984,8.147,23.743c55.035-28.457,35.8-109.368,35.8-109.368s-16.9,8.533-24.561,14.836" transform="translate(-791.66 -721.519)" fill="none"/>
    </clipPath>
    <linearGradient id="linear-gradient-5" x1="-1.149" y1="1.563" x2="-1.147" y2="1.563" xlink:href="#linear-gradient-4"/>
    <clipPath id="clip-path-6">
      <path id="Rectangle_4744" data-name="Rectangle 4744" d="M5.051,0H121.179a5.05,5.05,0,0,1,5.05,5.05V80.2a5.05,5.05,0,0,1-5.05,5.05H5.051A5.051,5.051,0,0,1,0,80.2V5.051A5.051,5.051,0,0,1,5.051,0Z" fill="none"/>
    </clipPath>
    <linearGradient id="linear-gradient-6" x1="-1.077" y1="1.233" x2="-1.074" y2="1.233" xlink:href="#linear-gradient-2"/>
    <clipPath id="clip-path-7">
      <path id="Path_14223" data-name="Path 14223" d="M582.923,920.8c-4.523.669-6.593,5.161-5.924,9.684a8.278,8.278,0,0,0,9.4,6.977c4.523-.669,6.946-4.775,6.276-9.3a8.986,8.986,0,0,0-8.634-7.446,7.667,7.667,0,0,0-1.12.082" transform="translate(-576.877 -920.719)" fill="none"/>
    </clipPath>
    <linearGradient id="linear-gradient-7" x1="-6.532" y1="6.285" x2="-6.521" y2="6.285" gradientUnits="objectBoundingBox">
      <stop offset="0" stop-color="#0583d2"/>
      <stop offset="1" stop-color="#0583d2"/>
    </linearGradient>
    <clipPath id="clip-path-8">
      <path id="Path_14224" data-name="Path 14224" d="M912.716,1330.429l-1.358,3.678-2.249,18.28s31.646,5.7,47.359,5.717h.111a14.753,14.753,0,0,0,4.4-.657c.478-.429.945-.874,1.387-1.356,6.649-7.262,4.729-17.93-1.813-24.129-6.96-1.6-18.321-2.012-28.223-2.012-10.649,0-19.611.479-19.611.479" transform="translate(-909.109 -1329.95)" fill="url(#linear-gradient)"/>
    </clipPath>
    <clipPath id="clip-path-9">
      <path id="Path_14225" data-name="Path 14225" d="M1137.6,1362.944c-.442.482-.909.927-1.387,1.356a13.9,13.9,0,0,0,9.488-13.4v-.117c-.021-5.094-2.736-9.986-8.483-11.6-.453-.128-.931-.248-1.432-.363,6.542,6.2,8.462,16.866,1.813,24.129" transform="translate(-1135.787 -1338.815)" fill="none"/>
    </clipPath>
    <linearGradient id="linear-gradient-9" x1="-10.412" y1="1.019" x2="-10.402" y2="1.019" xlink:href="#linear-gradient-7"/>
    <clipPath id="clip-path-10">
      <path id="Path_14226" data-name="Path 14226" d="M874.731,1349.908l8.65.616a8.565,8.565,0,0,0,6.616-2.513,10.551,10.551,0,0,0,3.059-6.974,13.4,13.4,0,0,0-2.914-9.166,10.888,10.888,0,0,0-7.942-4.107l-5.654-.241Z" transform="translate(-874.731 -1327.524)" fill="none"/>
    </clipPath>
    <linearGradient id="linear-gradient-10" x1="-6.881" y1="1.174" x2="-6.873" y2="1.174" xlink:href="#linear-gradient-4"/>
    <clipPath id="clip-path-11">
      <path id="Path_14227" data-name="Path 14227" d="M23.587,1326.661c-6.694,6-8.88,16.6-2.414,24.063.43.5.885.955,1.352,1.4a14.8,14.8,0,0,0,4.38.792c15.667.495,47.594-4.259,47.594-4.259l-1.792-18.342-1.266-3.718s-14.588-1.229-28.668-1.228c-7.2,0-14.272.322-19.186,1.293" transform="translate(-17.297 -1325.368)" fill="none"/>
    </clipPath>
    <linearGradient id="linear-gradient-11" x1="-0.568" y1="0.751" x2="-0.561" y2="0.751" xlink:href="#linear-gradient-2"/>
    <clipPath id="clip-path-12">
      <path id="Path_14228" data-name="Path 14228" d="M8.775,1331.385c-12.225,3.042-11.284,21.124.378,25.143-.467-.443-.923-.9-1.352-1.4-6.466-7.463-4.28-18.068,2.414-24.063-.5.1-.984.205-1.44.319" transform="translate(0 -1331.066)" fill="none"/>
    </clipPath>
    <linearGradient id="linear-gradient-12" x1="0.349" y1="1.028" x2="0.359" y2="1.028" xlink:href="#linear-gradient-7"/>
    <clipPath id="clip-path-13">
      <path id="Path_14229" data-name="Path 14229" d="M235.211,1327.613a10.819,10.819,0,0,0-8.042,3.861,13.336,13.336,0,0,0-3.141,9.073,10.616,10.616,0,0,0,2.884,7.065,8.614,8.614,0,0,0,6.55,2.715l8.662-.35-1.256-22.431Z" transform="translate(-224.022 -1327.545)" fill="none"/>
    </clipPath>
    <linearGradient id="linear-gradient-13" x1="-1.656" y1="1.191" x2="-1.647" y2="1.191" xlink:href="#linear-gradient-4"/>
    <clipPath id="clip-path-14">
      <path id="Path_14230" data-name="Path 14230" d="M439.52,1027.264c-.237.312-86.606,44.577-162.773,63.977a82.77,82.77,0,0,1,3.546,21.74q.066,2.443-.079,4.82c58.409-3,121.8-22.479,176.272-39.6,16.892-5.447,26.506-23.752,19.245-40.464-4.252-9.787-12.5-14.252-21.489-14.253a32.319,32.319,0,0,0-14.723,3.778" transform="translate(-276.747 -1023.486)" fill="none"/>
    </clipPath>
    <linearGradient id="linear-gradient-14" x1="-0.249" y1="0.754" x2="-0.248" y2="0.754" gradientUnits="objectBoundingBox">
      <stop offset="0" stop-color="#0583d2"/>
      <stop offset="1" stop-color="#0375bc"/>
    </linearGradient>
    <clipPath id="clip-path-15">
      <path id="Path_14231" data-name="Path 14231" d="M68.326,1033.551c-4.372,16.159,5.549,29.08,19.8,34.8,48.986,19.677,120.943,37.65,164.717,40.591-.033-.612-.07-1.225-.091-1.835a50.223,50.223,0,0,1,4.915-23.535c.1-.333.22-.652.326-.981-4.349-1.347-9.968-3.172-17.35-5.676-54.086-18.51-95.347-37.2-134.727-58.714a29.56,29.56,0,0,0-14.132-3.793c-10.592,0-20.05,6.543-23.457,19.139" transform="translate(-67.284 -1014.412)" fill="none"/>
    </clipPath>
    <linearGradient id="linear-gradient-15" x1="-0.006" y1="0.83" x2="-0.005" y2="0.83" xlink:href="#linear-gradient-7"/>
    <clipPath id="clip-path-16">
      <path id="Path_14232" data-name="Path 14232" d="M484.631,343.841l-.523,19.889-16.239,3.056s5.817,25.207,34.057,24.684c28.764-.523,31.328-24.766,31.328-24.766l-18.789-4.021-1.57-20.936Z" transform="translate(-467.868 -341.747)" fill="none"/>
    </clipPath>
    <linearGradient id="linear-gradient-16" x1="-1.605" y1="4.957" x2="-1.602" y2="4.957" xlink:href="#linear-gradient-4"/>
    <clipPath id="clip-path-17">
      <path id="Path_14233" data-name="Path 14233" d="M518.9,142.262c25.181,9.976,40.969-38.713,36.26-51.9-7.281-20.39-12.076-17.971-12.076-17.971L513.3,69.822s-30.1,58.3,5.6,72.44" transform="translate(-501.441 -69.822)" fill="none"/>
    </clipPath>
    <linearGradient id="linear-gradient-17" x1="-0.892" y1="3.477" x2="-0.89" y2="3.477" xlink:href="#linear-gradient-4"/>
    <clipPath id="clip-path-18">
      <rect id="Rectangle_4756" data-name="Rectangle 4756" width="267.663" height="329.963" fill="none"/>
    </clipPath>
    <clipPath id="clip-path-19">
      <path id="Path_14236" data-name="Path 14236" d="M556.177.193C545.929,2.525,541.3,15.775,532.76,10.849c-4.516-2.6-11.835-2.52-19.437-.041-2.276.742-4.842-.225-7.648-1.192-3.28-1.131-6.889-2.261-10.749-.662-12.614,5.227-10.74,29.175-8.8,42.243,2.071,13.981,8.306-12.984,12.046-19.576s14.926-1.57,38.933,6.608c12.488,4.254,21.509-7.2,25.021-18.661C565.122,9.784,564.1,0,557.795,0a7.3,7.3,0,0,0-1.618.193" transform="translate(-484.729 0)" fill="none"/>
    </clipPath>
    <linearGradient id="linear-gradient-18" x1="-1.005" y1="3.34" x2="-1.003" y2="3.34" xlink:href="#linear-gradient-2"/>
    <clipPath id="clip-path-20">
      <path id="Path_14237" data-name="Path 14237" d="M494.963,170.542c-2.372,8.044-.866,19.159,3.9,13.992s3.672-14.176,3.672-14.176-2.278-3.44-4.507-3.44c-1.14,0-2.268.9-3.071,3.624" transform="translate(-493.857 -166.918)" fill="none"/>
    </clipPath>
    <linearGradient id="linear-gradient-19" x1="-4.447" y1="22.685" x2="-4.437" y2="22.685" xlink:href="#linear-gradient-4"/>
  </defs>
  <g id="developer" transform="translate(-735.718 -138)">
    <g id="Group_12328" data-name="Group 12328" transform="translate(787.867 161.143)">
      <rect id="Rectangle_6603" data-name="Rectangle 6603" width="339" height="194" rx="10" transform="translate(105.133 -23.143)" fill="#fff"/>
      <g id="Group_12330" data-name="Group 12330" transform="translate(120.791 2.243)" opacity="0.4">
        <rect id="Rectangle_4730" data-name="Rectangle 4730" width="109.405" height="8.657" transform="translate(98.973 20.5)" fill="#b8e3ff"/>
        <rect id="Rectangle_4736" data-name="Rectangle 4736" width="87.569" height="8.657" transform="translate(3.802 20.499)" fill="#b8e3ff"/>
        <path id="Path_12854" data-name="Path 12854" d="M199.628,36.472h-83.56v8.657h83.56" transform="translate(106.618 -15.972)" fill="#d1ce19"/>
        <path id="Path_12855" data-name="Path 12855" d="M17.144,54.606h187.58V45.949H17.144" transform="translate(-17.144 -10.228)" fill="#213e7b" opacity="0.8"/>
        <path id="Path_12856" data-name="Path 12856" d="M39.81,32.365h234.8V23.708H39.81" transform="translate(-36.008 -23.708)" fill="#203e7d" opacity="0.8"/>
        <rect id="Rectangle_4731" data-name="Rectangle 4731" width="45.593" height="8.657" transform="translate(202.291 35.721)" fill="#213e7b" opacity="0.8"/>
        <path id="Path_12857" data-name="Path 12857" d="M177.671,45.949H133.618v8.657h44.054" transform="translate(128.576 -10.228)" fill="#213e7b" opacity="0.8"/>
        <path id="Path_12858" data-name="Path 12858" d="M182.988,23.709H129.368v8.657h53.621" transform="translate(123.257 -23.708)" fill="#0583d2"/>
        <path id="Path_12859" data-name="Path 12859" d="M17.144,64.083h98.971V55.427H17.144" transform="translate(-17.144 -4.484)" fill="#b8e3ff"/>
        <rect id="Rectangle_4732" data-name="Rectangle 4732" width="134.203" height="8.657" transform="translate(113.68 50.944)" fill="#b8e3ff"/>
        <path id="Path_12860" data-name="Path 12860" d="M34.12,73.561H94.877V64.9H34.12" transform="translate(4.096 1.26)" fill="#d1ce19"/>
        <path id="Path_12861" data-name="Path 12861" d="M260.431,64.9H67.467v8.657H260.431" transform="translate(45.816 1.261)" fill="#d1ce19"/>
        <path id="Path_12862" data-name="Path 12862" d="M17.144,83.038h84.262V74.381H17.144" transform="translate(-17.144 7.005)" fill="#213e7b" opacity="0.8"/>
        <rect id="Rectangle_4733" data-name="Rectangle 4733" width="148.911" height="8.657" transform="translate(98.973 81.385)" fill="#213e7b" opacity="0.8"/>
        <rect id="Rectangle_4738" data-name="Rectangle 4738" width="148.911" height="8.657" transform="translate(98.973 129.804)" fill="#4d6495" opacity="0.8"/>
        <path id="Path_12863" data-name="Path 12863" d="M177.671,74.382H133.618v8.657h44.054" transform="translate(128.576 7.005)" fill="#213e7b" opacity="0.8"/>
        <path id="Path_12864" data-name="Path 12864" d="M17.144,92.516h141.1V83.859H17.144" transform="translate(-17.144 12.749)" fill="#b8e3ff"/>
        <path id="Path_12869" data-name="Path 12869" d="M17.144,92.516h141.1V83.859H17.144" transform="translate(-17.144 61.168)" fill="#4d6495"/>
        <rect id="Rectangle_4734" data-name="Rectangle 4734" width="52.565" height="8.657" transform="translate(155.814 96.608)" fill="#b8e3ff"/>
        <path id="Path_12865" data-name="Path 12865" d="M199.628,83.859h-83.56v8.657h83.56" transform="translate(106.618 12.749)" fill="#b8e3ff"/>
        <rect id="Rectangle_4735" data-name="Rectangle 4735" width="186.16" height="8.657" transform="translate(61.722 111.829)" fill="#0583d2"/>
        <rect id="Rectangle_4737" data-name="Rectangle 4737" width="186.16" height="8.657" transform="translate(61.722 160.248)" fill="#4d6495"/>
        <path id="Path_12866" data-name="Path 12866" d="M177.671,93.337H133.618v8.657h44.054" transform="translate(128.576 18.493)" fill="#0583d2"/>
      </g>
      <g transform="matrix(1, 0, 0, 1, -52.15, -23.14)" filter="url(#Path_14217)">
        <path id="Path_14217-2" data-name="Path 14217" d="M0,0H209.382V138.963H0Z" transform="translate(52.5 97.69)" fill="#fefefe"/>
      </g>
      <g id="Group_12332" data-name="Group 12332" transform="translate(0 72.63)">
        <g id="Group_12289" data-name="Group 12289">
          <g id="Group_12331" data-name="Group 12331">
            <g id="Group_12287" data-name="Group 12287" style="mix-blend-mode: normal;isolation: isolate">
              <path id="Rectangle_6602" data-name="Rectangle 6602" d="M5,0H204a5,5,0,0,1,5,5V28a0,0,0,0,1,0,0H0a0,0,0,0,1,0,0V5A5,5,0,0,1,5,0Z" transform="translate(0.133 -3.773)" fill="#0583d2"/>
            </g>
            <path id="Path_12476" data-name="Path 12476" d="M14.227,40.476A4.724,4.724,0,1,1,9.5,35.751a4.725,4.725,0,0,1,4.725,4.725" transform="translate(6.253 -30.47)" fill="#fff"/>
            <path id="Path_12477" data-name="Path 12477" d="M23.656,40.791a5.281,5.281,0,1,1-5.281-5.281,5.28,5.28,0,0,1,5.281,5.281" transform="translate(17.13 -30.785)" fill="#fff"/>
            <path id="Path_12478" data-name="Path 12478" d="M32.322,40.891a5.458,5.458,0,1,1-5.457-5.457,5.457,5.457,0,0,1,5.457,5.457" transform="translate(28.005 -30.884)" fill="#fff"/>
            <path id="Path_12479" data-name="Path 12479" d="M259.366,155.132a37.674,37.674,0,1,1-37.674-37.674,37.676,37.676,0,0,1,37.674,37.674" transform="translate(223.236 67.16)" fill="#0583d2"/>
            <path id="Path_15308" data-name="Path 15308" d="M259.366,155.132a37.674,37.674,0,1,1-37.674-37.674,37.676,37.676,0,0,1,37.674,37.674" transform="translate(-132.884 54.747)" fill="#fff"/>
            <g id="Group_16852" data-name="Group 16852" transform="translate(20.853 12)">
              <path id="Path_12480" data-name="Path 12480" d="M14.2,119.334l13.286-6.928v2.951a1.152,1.152,0,0,1-.168.612,1.36,1.36,0,0,1-.554.479l-6.089,3.121a5.4,5.4,0,0,1-.814.343q-.427.143-.914.26c.325.078.629.166.914.26a5.571,5.571,0,0,1,.814.345l6.089,3.136a1.372,1.372,0,0,1,.554.479,1.156,1.156,0,0,1,.168.612v2.953L14.2,121.011Z" transform="translate(30.08 78.069)"/>
              <path id="Path_12481" data-name="Path 12481" d="M29.092,133.58a2.448,2.448,0,0,1-.386.672,2.25,2.25,0,0,1-.536.477,2.579,2.579,0,0,1-.639.294,2.245,2.245,0,0,1-.654.1H25.133l9.8-25.063a2.351,2.351,0,0,1,.822-1.082,2.185,2.185,0,0,1,1.293-.379h1.762Z" transform="translate(35.971 76.018)"/>
              <path id="Path_12482" data-name="Path 12482" d="M36.264,127.957V125a1.156,1.156,0,0,1,.168-.612,1.356,1.356,0,0,1,.552-.479l6.091-3.136a7.976,7.976,0,0,1,1.728-.6c-.325-.077-.629-.165-.914-.26a5.471,5.471,0,0,1-.814-.343l-6.091-3.121a1.345,1.345,0,0,1-.552-.479,1.149,1.149,0,0,1-.168-.612v-2.951l13.286,6.928v1.677Z" transform="translate(41.969 78.069)"/>
            </g>
            <path id="Path_12488" data-name="Path 12488" d="M76.442,61.132h-.591V60.8h1.59v.33h-.586v1.646h-.413Zm3.169.085H79.6l-.584,1.563H78.75l-.582-1.563h-.007V62.78h-.39V60.8h.572l.54,1.4.535-1.4h.57V62.78h-.379Z" transform="translate(99.228 6.302)" fill="#e76f00"/>
            <g transform="matrix(1, 0, 0, 1, -52.15, -95.77)" filter="url(#Ellipse_64)">
              <ellipse id="Ellipse_64-2" data-name="Ellipse 64" cx="74.77" cy="74.77" rx="74.77" ry="74.77" transform="translate(409.73 96)" fill="#fff"/>
            </g>
            <g id="Group_12329" data-name="Group 12329" transform="translate(386.714 8.551)">
              <path id="Path_12483" data-name="Path 12483" d="M183.516,84.116s-4.567,2.657,3.251,3.555c9.472,1.08,14.311.926,24.749-1.05a43.046,43.046,0,0,0,6.577,3.21c-23.4,10.028-52.954-.581-34.577-5.715M180.658,71.03s-5.123,3.791,2.7,4.6c10.118,1.044,18.109,1.13,31.934-1.534a14.163,14.163,0,0,0,4.919,3c-28.289,8.272-59.8.653-39.553-6.067" transform="translate(-155.129 8.316)" fill="#5382a1"/>
              <path id="Path_12484" data-name="Path 12484" d="M190.641,79.553c5.765,6.638-1.515,12.612-1.515,12.612s14.64-7.557,7.916-17.02c-6.278-8.825-11.094-13.211,14.973-28.329,0,0-40.916,10.218-21.374,32.737" transform="translate(-141.009 -22.405)" fill="#e76f00"/>
              <path id="Path_12485" data-name="Path 12485" d="M246.385,102.022s3.38,2.786-3.721,4.941c-13.506,4.09-56.212,5.327-68.075.163-4.265-1.856,3.732-4.431,6.248-4.971a16.181,16.181,0,0,1,4.122-.463c-4.742-3.342-30.655,6.559-13.161,9.395,47.7,7.736,86.962-3.482,74.586-9.066M196.394,65.7s-21.723,5.159-7.693,7.033c5.924.794,17.732.615,28.733-.309,8.989-.758,18.016-2.369,18.016-2.369a38.139,38.139,0,0,0-5.463,2.922c-22.059,5.8-64.672,3.1-52.405-2.831,10.375-5.016,18.812-4.447,18.812-4.447m38.967,21.782c22.424-11.652,12.056-22.85,4.819-21.342a16.75,16.75,0,0,0-2.564.69,4.084,4.084,0,0,1,1.915-1.479c14.318-5.032,25.328,14.846-4.621,22.719a1.975,1.975,0,0,0,.451-.588" transform="translate(-165.807 0.088)" fill="#5382a1"/>
              <path id="Path_12486" data-name="Path 12486" d="M205.955,36.056s12.419,12.423-11.779,31.526c-19.4,15.323-4.424,24.062-.007,34.044-11.328-10.221-19.638-19.216-14.061-27.588,8.183-12.292,30.859-18.25,25.847-37.983" transform="translate(-149.922 -36.056)" fill="#e76f00"/>
              <path id="Path_12487" data-name="Path 12487" d="M189.711,94.7c21.523,1.377,54.576-.765,55.357-10.949,0,0-1.5,3.861-17.787,6.926-18.37,3.458-41.032,3.054-54.47.839,0,0,2.754,2.276,16.9,3.183" transform="translate(-156.921 24.45)" fill="#5382a1"/>
            </g>
            <path id="Path_14218" data-name="Path 14218" d="M230.619,93.167H53.095a2.82,2.82,0,1,1,0-5.614H230.619a2.82,2.82,0,1,1,0,5.614" transform="translate(-41.853 -36.376)" fill="#fff"/>
            <g id="Group_12333" data-name="Group 12333" transform="translate(11.033 36.975)" opacity="0.4">
              <rect id="Rectangle_4730-2" data-name="Rectangle 4730" width="72.05" height="8.657" transform="translate(55.774 20.5)" fill="#b8e3ff"/>
              <rect id="Rectangle_4736-2" data-name="Rectangle 4736" width="48.762" height="8.657" transform="translate(2.504 20.499)" fill="#b8e3ff"/>
              <path id="Path_12854-2" data-name="Path 12854" d="M171.1,36.472H116.068v8.657H171.1" transform="translate(11.877 -15.972)" fill="#d1ce19"/>
              <path id="Path_12855-2" data-name="Path 12855" d="M17.144,54.606H140.677V45.949H17.144" transform="translate(-17.144 -10.228)" fill="#213e7b" opacity="0.8"/>
              <path id="Path_12856-2" data-name="Path 12856" d="M39.81,32.365h133.5V23.708H39.81" transform="translate(-37.306 -23.708)" fill="#203e7d" opacity="0.8"/>
              <rect id="Rectangle_4731-2" data-name="Rectangle 4731" width="30.026" height="8.657" transform="translate(118.702 35.721)" fill="#213e7b" opacity="0.8"/>
              <path id="Path_12857-2" data-name="Path 12857" d="M162.63,45.949H133.618v8.657H162.63" transform="translate(20.346 -10.228)" fill="#213e7b" opacity="0.8"/>
              <path id="Path_12858-2" data-name="Path 12858" d="M164.68,23.709H129.368v8.657H164.68" transform="translate(18.294 -23.708)" fill="#0583d2"/>
              <path id="Path_12859-2" data-name="Path 12859" d="M17.144,64.083H72.917V55.427H17.144" transform="translate(-17.144 -4.484)" fill="#b8e3ff"/>
              <rect id="Rectangle_4732-2" data-name="Rectangle 4732" width="88.381" height="8.657" transform="translate(62.504 50.944)" fill="#b8e3ff"/>
              <path id="Path_12860-2" data-name="Path 12860" d="M34.12,73.561H74.132V64.9H34.12" transform="translate(-8.952 1.26)" fill="#d1ce19"/>
              <path id="Path_12862-2" data-name="Path 12862" d="M17.144,83.038H72.636V74.381H17.144" transform="translate(-17.144 7.005)" fill="#213e7b" opacity="0.8"/>
              <rect id="Rectangle_4733-2" data-name="Rectangle 4733" width="86.3" height="8.657" transform="translate(65.179 81.385)" fill="#213e7b" opacity="0.8"/>
              <path id="Path_12863-2" data-name="Path 12863" d="M162.63,74.382H133.618v8.657H162.63" transform="translate(20.346 7.005)" fill="#213e7b" opacity="0.8"/>
            </g>
            <g transform="matrix(1, 0, 0, 1, -52.15, -95.77)" filter="url(#Rectangle_4356)">
              <rect id="Rectangle_4356-2" data-name="Rectangle 4356" width="130.859" height="77.214" transform="translate(130.67 128.84)" fill="#e76f00"/>
            </g>
            <path id="Path_12489" data-name="Path 12489" d="M75.816,90.506A10.627,10.627,0,0,1,69.179,93.5c-2.99,0-4.606-1.794-4.606-4.67,0-3.11,1.73-5.385,8.674-5.385h2.568v7.062m6.1,6.88v-21.3c0-5.441-3.1-9.032-10.586-9.032a27.9,27.9,0,0,0-11.3,2.454l.9,3.773a26.238,26.238,0,0,1,8.73-1.735c4.309,0,6.162,1.735,6.162,5.321V79.56H73.667c-10.474,0-15.2,4.066-15.2,10.167,0,5.265,3.113,8.258,8.973,8.258,3.77,0,6.581-1.554,9.211-3.831l.478,3.233Zm20.353,0H94.663L85.508,67.593h6.643l5.681,18.3L99.1,91.4a114.547,114.547,0,0,0,5.922-23.81h6.461a120.924,120.924,0,0,1-9.208,29.793m29.178-6.88A10.66,10.66,0,0,1,124.8,93.5c-2.985,0-4.6-1.794-4.6-4.67,0-3.11,1.733-5.385,8.677-5.385h2.574v7.062m6.1,6.88v-21.3c0-5.441-3.11-9.032-10.583-9.032a27.915,27.915,0,0,0-11.31,2.454l.9,3.773a26.3,26.3,0,0,1,8.733-1.735c4.309,0,6.165,1.735,6.165,5.321V79.56h-2.155c-10.474,0-15.2,4.066-15.2,10.167,0,5.265,3.11,8.258,8.971,8.258,3.77,0,6.581-1.554,9.217-3.831l.478,3.233Zm-85.764,5.058a16.017,16.017,0,0,1-7.621,5.681l-3.01-3.541a12.661,12.661,0,0,0,5.279-4.946c.8-1.607,1.14-3.678,1.14-8.627V57h6.478V90.545c0,6.618-.528,9.292-2.266,11.9" transform="translate(52.517 -10.889)" fill="#fff"/>
            <g id="Group_12373" data-name="Group 12373" transform="translate(424.039 201.404)">
              <g id="Group_12372" data-name="Group 12372" transform="translate(0 0)" clip-path="url(#clip-path)">
                <path id="Path_14238" data-name="Path 14238" d="M39.725,16.92H37a16.276,16.276,0,0,0-1.839-4.191l2.1-2.1a2.055,2.055,0,0,0,0-2.9L34.3,4.764a2.052,2.052,0,0,0-2.9,0L29.165,7A16.133,16.133,0,0,0,25.21,5.4V2.053A2.054,2.054,0,0,0,23.157,0H18.972a2.054,2.054,0,0,0-2.053,2.053V5.442a16.405,16.405,0,0,0-3.841,1.525L10.625,4.515a2.052,2.052,0,0,0-2.9,0L4.763,7.474a2.05,2.05,0,0,0,0,2.9l2.271,2.273a16.465,16.465,0,0,0-1.786,3.919h-3.2A2.054,2.054,0,0,0,0,18.622v4.185a2.052,2.052,0,0,0,2.053,2.052h2.8a16.169,16.169,0,0,0,1.573,4.383L4.514,31.154a2.053,2.053,0,0,0,0,2.9l2.96,2.96a2.053,2.053,0,0,0,2.9,0l1.662-1.662a16.293,16.293,0,0,0,4.53,2.05v2.323a2.052,2.052,0,0,0,2.053,2.052h4.185a2.051,2.051,0,0,0,2.052-2.052V37.559a16.474,16.474,0,0,0,4.7-1.893l1.6,1.6a2.05,2.05,0,0,0,2.9,0l2.96-2.958a2.055,2.055,0,0,0,0-2.9l-1.642-1.641a16.385,16.385,0,0,0,1.8-4.551h2.549a2.051,2.051,0,0,0,2.052-2.052V18.973a2.052,2.052,0,0,0-2.052-2.053M23.126,31.8a10.554,10.554,0,1,1,8.287-8.287A10.561,10.561,0,0,1,23.126,31.8" transform="translate(-0.001 0)" fill="#fff"/>
              </g>
            </g>
          </g>
        </g>
      </g>
    </g>
    <g id="Group_12334" data-name="Group 12334" transform="translate(925.563 267.263)">
      <g id="Group_12335" data-name="Group 12335" transform="translate(109.207 12.695)">
        <g id="Group_12334-2" data-name="Group 12334" clip-path="url(#clip-path-2)">
          <rect id="Rectangle_4739" data-name="Rectangle 4739" width="104.687" height="108.69" transform="translate(-35.879 51.619) rotate(-58.275)" fill="url(#linear-gradient-2)"/>
        </g>
      </g>
      <g id="Group_12337" data-name="Group 12337" transform="translate(56.729 101.811)">
        <g id="Group_12336" data-name="Group 12336" clip-path="url(#clip-path-3)">
          <rect id="Rectangle_4740" data-name="Rectangle 4740" width="177.203" height="209.242" transform="translate(-8.117 0.222) rotate(-1.893)" fill="url(#linear-gradient-3)"/>
        </g>
      </g>
      <g id="Group_12339" data-name="Group 12339" transform="translate(51.738 163.737)">
        <g id="Group_12338" data-name="Group 12338" clip-path="url(#clip-path-4)">
          <rect id="Rectangle_4741" data-name="Rectangle 4741" width="112.971" height="130.501" transform="translate(-60.506 16.001) rotate(-22.488)" fill="url(#linear-gradient-4)"/>
        </g>
      </g>
      <g id="Group_12341" data-name="Group 12341" transform="translate(179.654 163.737)">
        <g id="Group_12340" data-name="Group 12340" clip-path="url(#clip-path-5)">
          <rect id="Rectangle_4742" data-name="Rectangle 4742" width="127.166" height="104.915" transform="translate(-42.781 93.367) rotate(-67.512)" fill="url(#linear-gradient-5)"/>
        </g>
      </g>
      <g id="Group_12343" data-name="Group 12343" transform="translate(76.153 193.302)">
        <g id="Group_12342" data-name="Group 12342" clip-path="url(#clip-path-6)">
          <rect id="Rectangle_4743" data-name="Rectangle 4743" width="88.337" height="128.295" transform="matrix(0.025, -1, 1, 0.025, -2.104, 85.196)" fill="url(#linear-gradient-6)"/>
        </g>
      </g>
      <g id="Group_12345" data-name="Group 12345" transform="translate(130.913 208.942)">
        <g id="Group_12344" data-name="Group 12344" clip-path="url(#clip-path-7)">
          <rect id="Rectangle_4745" data-name="Rectangle 4745" width="19.748" height="19.414" transform="translate(-3.105 17.028) rotate(-81.455)" fill="url(#linear-gradient-7)"/>
        </g>
      </g>
      <g id="Group_12347" data-name="Group 12347" transform="translate(206.307 301.81)">
        <g id="Group_12346" data-name="Group 12346" clip-path="url(#clip-path-8)">
          <rect id="Rectangle_4746" data-name="Rectangle 4746" width="28.614" height="60.118" transform="translate(-0.217 28.152) rotate(-89.559)" fill="url(#linear-gradient)"/>
        </g>
      </g>
      <g id="Group_12349" data-name="Group 12349" transform="translate(257.748 303.822)">
        <g id="Group_12348" data-name="Group 12348" clip-path="url(#clip-path-9)">
          <rect id="Rectangle_4747" data-name="Rectangle 4747" width="24.076" height="25.827" transform="translate(-12.581 10.721) rotate(-40.437)" fill="url(#linear-gradient-9)"/>
        </g>
      </g>
      <g id="Group_12351" data-name="Group 12351" transform="translate(198.506 301.26)">
        <g id="Group_12350" data-name="Group 12350" clip-path="url(#clip-path-10)">
          <rect id="Rectangle_4748" data-name="Rectangle 4748" width="28.147" height="25.384" transform="translate(-7.529 20.392) rotate(-69.736)" fill="url(#linear-gradient-10)"/>
        </g>
      </g>
      <g id="Group_12353" data-name="Group 12353" transform="translate(3.925 300.77)">
        <g id="Group_12352" data-name="Group 12352" clip-path="url(#clip-path-11)">
          <rect id="Rectangle_4749" data-name="Rectangle 4749" width="29.232" height="60.34" transform="translate(-3.15 28.03) rotate(-88.854)" fill="url(#linear-gradient-11)"/>
        </g>
      </g>
      <g id="Group_12355" data-name="Group 12355" transform="translate(0 302.063)">
        <g id="Group_12354" data-name="Group 12354" clip-path="url(#clip-path-12)">
          <rect id="Rectangle_4750" data-name="Rectangle 4750" width="22.338" height="28.748" transform="translate(-12.422 3.699) rotate(-22.405)" fill="url(#linear-gradient-12)"/>
        </g>
      </g>
      <g id="Group_12357" data-name="Group 12357" transform="translate(50.838 301.264)">
        <g id="Group_12356" data-name="Group 12356" clip-path="url(#clip-path-13)">
          <rect id="Rectangle_4751" data-name="Rectangle 4751" width="27.763" height="24.99" transform="translate(-7.523 20.135) rotate(-69.736)" fill="url(#linear-gradient-13)"/>
        </g>
      </g>
      <g id="Group_12359" data-name="Group 12359" transform="translate(62.803 232.263)">
        <g id="Group_12358" data-name="Group 12358" clip-path="url(#clip-path-14)">
          <rect id="Rectangle_4752" data-name="Rectangle 4752" width="221.549" height="199.282" transform="matrix(0.8, -0.601, 0.601, 0.8, -45.291, 34.022)" fill="url(#linear-gradient-14)"/>
        </g>
      </g>
      <g id="Group_12361" data-name="Group 12361" transform="translate(15.269 230.204)">
        <g id="Group_12360" data-name="Group 12360" clip-path="url(#clip-path-15)">
          <rect id="Rectangle_4753" data-name="Rectangle 4753" width="215.158" height="158.85" transform="matrix(0.931, -0.365, 0.365, 0.931, -35.461, 12.6)" fill="url(#linear-gradient-15)"/>
        </g>
      </g>
      <g id="Group_12363" data-name="Group 12363" transform="translate(106.175 77.554)">
        <g id="Group_12362" data-name="Group 12362" clip-path="url(#clip-path-16)">
          <rect id="Rectangle_4754" data-name="Rectangle 4754" width="65.959" height="50.995" transform="translate(-0.577 0.007) rotate(-0.658)" fill="url(#linear-gradient-16)"/>
        </g>
      </g>
      <g id="Group_12365" data-name="Group 12365" transform="translate(113.794 15.845)">
        <g id="Group_12364" data-name="Group 12364" clip-path="url(#clip-path-17)">
          <rect id="Rectangle_4755" data-name="Rectangle 4755" width="96.159" height="91.686" transform="translate(-34.483 79.079) rotate(-78.391)" fill="url(#linear-gradient-17)"/>
        </g>
      </g>
      <g id="Group_12367" data-name="Group 12367">
        <g id="Group_12366" data-name="Group 12366" clip-path="url(#clip-path-18)">
          <path id="Path_14234" data-name="Path 14234" d="M737.407,158.129c-.085-.238-.158-.448-.226-.646.115,1.075.177,2.2.189,3.35q.069-1.232.112-2.468c-.026-.078-.049-.161-.076-.236" transform="translate(-569.89 -121.745)" fill="#fff"/>
          <path id="Path_14235" data-name="Path 14235" d="M735.559,151.347c-.043-.4-.09-.793-.147-1.18,1.548,2.579-1.43-3.432.147,1.18" transform="translate(-568.268 -115.609)" fill="#fff"/>
        </g>
      </g>
      <g id="Group_12369" data-name="Group 12369" transform="translate(110.001)">
        <g id="Group_12368" data-name="Group 12368" clip-path="url(#clip-path-19)">
          <rect id="Rectangle_4757" data-name="Rectangle 4757" width="98.985" height="104.71" transform="matrix(0.526, -0.851, 0.851, 0.526, -31.569, 47.156)" fill="url(#linear-gradient-18)"/>
        </g>
      </g>
      <g id="Group_12371" data-name="Group 12371" transform="translate(112.073 37.879)">
        <g id="Group_12370" data-name="Group 12370" clip-path="url(#clip-path-20)">
          <rect id="Rectangle_4758" data-name="Rectangle 4758" width="23.516" height="12.652" transform="translate(-2.894 22.666) rotate(-85.89)" fill="url(#linear-gradient-19)"/>
        </g>
      </g>
    </g>
  </g>
</svg>
